<?xml version="1.0" encoding="utf-8" standalone="no"?>
<!DOCTYPE svg PUBLIC "-//W3C//DTD SVG 1.1//EN"
  "http://www.w3.org/Graphics/SVG/1.1/DTD/svg11.dtd">
<svg xmlns:xlink="http://www.w3.org/1999/xlink" width="1013.76pt" height="797.76pt" viewBox="0 0 1013.76 797.76" xmlns="http://www.w3.org/2000/svg" version="1.1">
 <metadata>
  <rdf:RDF xmlns:dc="http://purl.org/dc/elements/1.1/" xmlns:cc="http://creativecommons.org/ns#" xmlns:rdf="http://www.w3.org/1999/02/22-rdf-syntax-ns#">
   <cc:Work>
    <dc:type rdf:resource="http://purl.org/dc/dcmitype/StillImage"/>
    <dc:date>2026-09-13T19:26:14.036461</dc:date>
    <dc:format>image/svg+xml</dc:format>
    <dc:creator>
     <cc:Agent>
      <dc:title>Matplotlib v3.11.1, https://matplotlib.org/</dc:title>
     </cc:Agent>
    </dc:creator>
   </cc:Work>
  </rdf:RDF>
 </metadata>
 <defs>
  <style type="text/css">*{stroke-linejoin: round; stroke-linecap: butt}</style>
 </defs>
 <g id="figure_1">
  <g id="patch_1">
   <path d="M 0 797.76 
L 1013.76 797.76 
L 1013.76 0 
L 0 0 
z
" style="fill: #ffffff"/>
  </g>
  <g id="axes_1">
   <g id="patch_2">
    <path d="M 525.00234 351.073484 
Q 560.955576 520.40572 660.620458 659.474931 
" clip-path="url(#p37859f4cfc)" style="fill: none; stroke: #555555; stroke-width: 1.8; stroke-linecap: round"/>
    <path d="M 659.070751 649.759047 
L 660.620458 659.474931 
L 651.917926 654.885167 
z
" clip-path="url(#p37859f4cfc)" style="fill: #555555; stroke: #555555; stroke-width: 1.8; stroke-linecap: round"/>
   </g>
   <g id="patch_3">
    <path d="M 500.526653 342.429761 
Q 356.846071 466.088563 276.440747 635.533822 
" clip-path="url(#p37859f4cfc)" style="fill: none; stroke: #555555; stroke-width: 1.8; stroke-linecap: round"/>
    <path d="M 284.188498 629.469801 
L 276.440747 635.533822 
L 276.23818 625.697209 
z
" clip-path="url(#p37859f4cfc)" style="fill: #555555; stroke: #555555; stroke-width: 1.8; stroke-linecap: round"/>
   </g>
   <g id="patch_4">
    <path d="M 621.693809 466.40508 
Q 434.173082 519.377358 285.896853 642.681679 
" clip-path="url(#p37859f4cfc)" style="fill: none; stroke: #555555; stroke-width: 1.8; stroke-linecap: round"/>
    <path d="M 295.476333 640.438121 
L 285.896853 642.681679 
L 289.849694 633.67196 
z
" clip-path="url(#p37859f4cfc)" style="fill: #555555; stroke: #555555; stroke-width: 1.8; stroke-linecap: round"/>
   </g>
   <g id="patch_5">
    <path d="M 620.92102 457.580363 
Q 410.025013 441.762407 213.05174 513.047832 
" clip-path="url(#p37859f4cfc)" style="fill: none; stroke: #555555; stroke-width: 1.8; stroke-linecap: round"/>
    <path d="M 222.823854 514.190545 
L 213.05174 513.047832 
L 219.829179 505.915769 
z
" clip-path="url(#p37859f4cfc)" style="fill: #555555; stroke: #555555; stroke-width: 1.8; stroke-linecap: round"/>
   </g>
   <g id="patch_6">
    <path d="M 289.515957 667.402449 
Q 468.712081 714.90684 649.833762 686.257366 
" clip-path="url(#p37859f4cfc)" style="fill: none; stroke: #555555; stroke-width: 1.8; stroke-linecap: round"/>
    <path d="M 640.454391 683.286272 
L 649.833762 686.257366 
L 641.829264 691.978207 
z
" clip-path="url(#p37859f4cfc)" style="fill: #555555; stroke: #555555; stroke-width: 1.8; stroke-linecap: round"/>
   </g>
   <g id="patch_7">
    <path d="M 170.648364 323.508849 
Q 381.153628 439.673582 618.868426 457.966528 
" clip-path="url(#p37859f4cfc)" style="fill: none; stroke: #555555; stroke-width: 1.8; stroke-linecap: round"/>
    <path d="M 610.431963 452.904306 
L 618.868426 457.966528 
L 609.75677 461.678365 
z
" clip-path="url(#p37859f4cfc)" style="fill: #555555; stroke: #555555; stroke-width: 1.8; stroke-linecap: round"/>
   </g>
   <g id="patch_8">
    <path d="M 147.756265 336.436586 
Q 147.673007 420.532038 176.872408 497.246022 
" clip-path="url(#p37859f4cfc)" style="fill: none; stroke: #555555; stroke-width: 1.8; stroke-linecap: round"/>
    <path d="M 177.854178 487.456429 
L 176.872408 497.246022 
L 169.629796 490.58685 
z
" clip-path="url(#p37859f4cfc)" style="fill: #555555; stroke: #555555; stroke-width: 1.8; stroke-linecap: round"/>
   </g>
   <g id="patch_9">
    <path d="M 758.853373 225.798822 
Q 641.527755 247.285352 542.919565 310.747227 
" clip-path="url(#p37859f4cfc)" style="fill: none; stroke: #555555; stroke-width: 1.8; stroke-linecap: round"/>
    <path d="M 552.70073 309.684771 
L 542.919565 310.747227 
L 547.938299 302.284822 
z
" clip-path="url(#p37859f4cfc)" style="fill: #555555; stroke: #555555; stroke-width: 1.8; stroke-linecap: round"/>
   </g>
   <g id="patch_10">
    <path d="M 766.843794 240.552407 
Q 691.306111 326.952163 654.736188 433.60862 
" clip-path="url(#p37859f4cfc)" style="fill: none; stroke: #555555; stroke-width: 1.8; stroke-linecap: round"/>
    <path d="M 661.75252 426.71144 
L 654.736188 433.60862 
L 653.428243 423.857247 
z
" clip-path="url(#p37859f4cfc)" style="fill: #555555; stroke: #555555; stroke-width: 1.8; stroke-linecap: round"/>
   </g>
   <g id="patch_11">
    <path d="M 345.679835 163.605003 
Q 407.577814 252.937198 496.771094 311.441325 
" clip-path="url(#p37859f4cfc)" style="fill: none; stroke: #555555; stroke-width: 1.8; stroke-linecap: round"/>
    <path d="M 491.826029 302.93566 
L 496.771094 311.441325 
L 486.999523 310.293978 
z
" clip-path="url(#p37859f4cfc)" style="fill: #555555; stroke: #555555; stroke-width: 1.8; stroke-linecap: round"/>
   </g>
   <g id="patch_12">
    <path d="M 840.907928 584.924909 
Q 761.187286 611.580364 697.769732 663.636301 
" clip-path="url(#p37859f4cfc)" style="fill: none; stroke: #555555; stroke-width: 1.8; stroke-linecap: round"/>
    <path d="M 707.363339 661.453937 
L 697.769732 663.636301 
L 701.780005 654.651997 
z
" clip-path="url(#p37859f4cfc)" style="fill: #555555; stroke: #555555; stroke-width: 1.8; stroke-linecap: round"/>
   </g>
   <g id="patch_13">
    <path d="M 209.182839 535.777087 
Q 414.804089 655.516983 649.55116 679.138676 
" clip-path="url(#p37859f4cfc)" style="fill: none; stroke: #555555; stroke-width: 1.8; stroke-linecap: round"/>
    <path d="M 641.235908 673.879724 
L 649.55116 679.138676 
L 640.354847 682.635507 
z
" clip-path="url(#p37859f4cfc)" style="fill: #555555; stroke: #555555; stroke-width: 1.8; stroke-linecap: round"/>
   </g>
   <g id="PathCollection_1">
    <defs>
     <path id="C0_0_57af9503c7" d="M 0 25.495098 
C 6.761379 25.495098 13.24674 22.808773 18.027756 18.027756 
C 22.808773 13.24674 25.495098 6.761379 25.495098 -0 
C 25.495098 -6.761379 22.808773 -13.24674 18.027756 -18.027756 
C 13.24674 -22.808773 6.761379 -25.495098 0 -25.495098 
C -6.761379 -25.495098 -13.24674 -22.808773 -18.027756 -18.027756 
C -22.808773 -13.24674 -25.495098 -6.761379 -25.495098 0 
C -25.495098 6.761379 -22.808773 13.24674 -18.027756 18.027756 
C -13.24674 22.808773 -6.761379 25.495098 0 25.495098 
z
"/>
    </defs>
    <g clip-path="url(#p37859f4cfc)">
     <use xlink:href="#C0_0_57af9503c7" x="520.074055" y="326.061745" style="fill: #2ecc71; stroke: #000000; stroke-width: 1.2"/>
    </g>
    <g clip-path="url(#p37859f4cfc)">
     <use xlink:href="#C0_0_57af9503c7" x="646.317825" y="459.799137" style="fill: #2ecc71; stroke: #000000; stroke-width: 1.2"/>
    </g>
    <g clip-path="url(#p37859f4cfc)">
     <use xlink:href="#C0_0_57af9503c7" x="264.962069" y="660.528942" style="fill: #2ecc71; stroke: #000000; stroke-width: 1.2"/>
    </g>
    <g clip-path="url(#p37859f4cfc)">
     <use xlink:href="#C0_0_57af9503c7" x="148.463578" y="310.948019" style="fill: #3498db; stroke: #000000; stroke-width: 1.2"/>
    </g>
    <g clip-path="url(#p37859f4cfc)">
     <use xlink:href="#C0_0_57af9503c7" x="784.020345" y="221.712978" style="fill: #3498db; stroke: #000000; stroke-width: 1.2"/>
    </g>
    <g clip-path="url(#p37859f4cfc)">
     <use xlink:href="#C0_0_57af9503c7" x="331.621134" y="142.339968" style="fill: #3498db; stroke: #000000; stroke-width: 1.2"/>
    </g>
    <g clip-path="url(#p37859f4cfc)">
     <use xlink:href="#C0_0_57af9503c7" x="865.296422" y="577.489692" style="fill: #3498db; stroke: #000000; stroke-width: 1.2"/>
    </g>
    <g clip-path="url(#p37859f4cfc)">
     <use xlink:href="#C0_0_57af9503c7" x="452.897741" y="706.808284" style="fill: #3498db; stroke: #000000; stroke-width: 1.2"/>
    </g>
    <g clip-path="url(#p37859f4cfc)">
     <use xlink:href="#C0_0_57af9503c7" x="187.291839" y="522.703468" style="fill: #2ecc71; stroke: #000000; stroke-width: 1.2"/>
    </g>
    <g clip-path="url(#p37859f4cfc)">
     <use xlink:href="#C0_0_57af9503c7" x="676.945551" y="681.612415" style="fill: #e74c3c; stroke: #000000; stroke-width: 1.2"/>
    </g>
   </g>
   <g id="text_1">
    <g id="patch_14">
     <path d="M 507.629367 288.13588 
L 532.518742 288.13588 
Q 536.018742 288.13588 536.018742 284.63588 
L 536.018742 271.497208 
Q 536.018742 267.997208 532.518742 267.997208 
L 507.629367 267.997208 
Q 504.129367 267.997208 504.129367 271.497208 
L 504.129367 284.63588 
Q 504.129367 288.13588 507.629367 288.13588 
z
" clip-path="url(#p37859f4cfc)" style="fill: #ffffff; opacity: 0.9"/>
    </g>
    <g clip-path="url(#p37859f4cfc)">
     <text style="font-weight: 700; font-size: 14px; font-family: 'Arial'; text-anchor: middle" x="520.074055" y="281.689591" transform="rotate(-0 520.074055 281.689591)">GHI</text>
    </g>
   </g>
   <g id="text_2">
    <g id="patch_15">
     <path d="M 596.277669 421.873272 
L 696.357981 421.873272 
Q 699.857981 421.873272 699.857981 418.373272 
L 699.857981 405.2346 
Q 699.857981 401.7346 696.357981 401.7346 
L 596.277669 401.7346 
Q 592.777669 401.7346 592.777669 405.2346 
L 592.777669 418.373272 
Q 592.777669 421.873272 596.277669 421.873272 
z
" clip-path="url(#p37859f4cfc)" style="fill: #ffffff; opacity: 0.9"/>
    </g>
    <g clip-path="url(#p37859f4cfc)">
     <text style="font-weight: 700; font-size: 14px; font-family: 'Arial'; text-anchor: middle" x="646.317825" y="415.426983" transform="rotate(-0 646.317825 415.426983)">Ambient_Temp</text>
    </g>
   </g>
   <g id="text_3">
    <g id="patch_16">
     <path d="M 224.246131 622.603077 
L 305.678006 622.603077 
Q 309.178006 622.603077 309.178006 619.103077 
L 309.178006 605.964405 
Q 309.178006 602.464405 305.678006 602.464405 
L 224.246131 602.464405 
Q 220.746131 602.464405 220.746131 605.964405 
L 220.746131 619.103077 
Q 220.746131 622.603077 224.246131 622.603077 
z
" clip-path="url(#p37859f4cfc)" style="fill: #ffffff; opacity: 0.9"/>
    </g>
    <g clip-path="url(#p37859f4cfc)">
     <text style="font-weight: 700; font-size: 14px; font-family: 'Arial'; text-anchor: middle" x="264.962069" y="616.156788" transform="rotate(-0 264.962069 616.156788)">Panel_Temp</text>
    </g>
   </g>
   <g id="text_4">
    <g id="patch_17">
     <path d="M 106.523734 273.022155 
L 190.403421 273.022155 
Q 193.903421 273.022155 193.903421 269.522155 
L 193.903421 256.383483 
Q 193.903421 252.883483 190.403421 252.883483 
L 106.523734 252.883483 
Q 103.023734 252.883483 103.023734 256.383483 
L 103.023734 269.522155 
Q 103.023734 273.022155 106.523734 273.022155 
z
" clip-path="url(#p37859f4cfc)" style="fill: #ffffff; opacity: 0.9"/>
    </g>
    <g clip-path="url(#p37859f4cfc)">
     <text style="font-weight: 700; font-size: 14px; font-family: 'Arial'; text-anchor: middle" x="148.463578" y="266.575866" transform="rotate(-0 148.463578 266.575866)">Wind_Speed</text>
    </g>
   </g>
   <g id="text_5">
    <g id="patch_18">
     <path d="M 767.689564 183.787114 
L 800.351126 183.787114 
Q 803.851126 183.787114 803.851126 180.287114 
L 803.851126 167.148442 
Q 803.851126 163.648442 800.351126 163.648442 
L 767.689564 163.648442 
Q 764.189564 163.648442 764.189564 167.148442 
L 764.189564 180.287114 
Q 764.189564 183.787114 767.689564 183.787114 
z
" clip-path="url(#p37859f4cfc)" style="fill: #ffffff; opacity: 0.9"/>
    </g>
    <g clip-path="url(#p37859f4cfc)">
     <text style="font-weight: 700; font-size: 14px; font-family: 'Arial'; text-anchor: middle" x="784.020345" y="177.340825" transform="rotate(-0 784.020345 177.340825)">Hour</text>
    </g>
   </g>
   <g id="text_6">
    <g id="patch_19">
     <path d="M 310.633166 104.414104 
L 352.609103 104.414104 
Q 356.109103 104.414104 356.109103 100.914104 
L 356.109103 87.775432 
Q 356.109103 84.275432 352.609103 84.275432 
L 310.633166 84.275432 
Q 307.133166 84.275432 307.133166 87.775432 
L 307.133166 100.914104 
Q 307.133166 104.414104 310.633166 104.414104 
z
" clip-path="url(#p37859f4cfc)" style="fill: #ffffff; opacity: 0.9"/>
    </g>
    <g clip-path="url(#p37859f4cfc)">
     <text style="font-weight: 700; font-size: 14px; font-family: 'Arial'; text-anchor: middle" x="331.621134" y="97.967814" transform="rotate(-0 331.621134 97.967814)">Month</text>
    </g>
   </g>
   <g id="text_7">
    <g id="patch_20">
     <path d="M 833.018766 539.563828 
L 897.574079 539.563828 
Q 901.074079 539.563828 901.074079 536.063828 
L 901.074079 522.925156 
Q 901.074079 519.425156 897.574079 519.425156 
L 833.018766 519.425156 
Q 829.518766 519.425156 829.518766 522.925156 
L 829.518766 536.063828 
Q 829.518766 539.563828 833.018766 539.563828 
z
" clip-path="url(#p37859f4cfc)" style="fill: #ffffff; opacity: 0.9"/>
    </g>
    <g clip-path="url(#p37859f4cfc)">
     <text style="font-weight: 700; font-size: 14px; font-family: 'Arial'; text-anchor: middle" x="865.296422" y="533.117539" transform="rotate(-0 865.296422 533.117539)">SunShine</text>
    </g>
   </g>
   <g id="text_8">
    <g id="patch_21">
     <path d="M 422.933366 668.882419 
L 482.862116 668.882419 
Q 486.362116 668.882419 486.362116 665.382419 
L 486.362116 652.243747 
Q 486.362116 648.743747 482.862116 648.743747 
L 422.933366 648.743747 
Q 419.433366 648.743747 419.433366 652.243747 
L 419.433366 665.382419 
Q 419.433366 668.882419 422.933366 668.882419 
z
" clip-path="url(#p37859f4cfc)" style="fill: #ffffff; opacity: 0.9"/>
    </g>
    <g clip-path="url(#p37859f4cfc)">
     <text style="font-weight: 700; font-size: 14px; font-family: 'Arial'; text-anchor: middle" x="452.897741" y="662.43613" transform="rotate(-0 452.897741 662.43613)">Pressure</text>
    </g>
   </g>
   <g id="text_9">
    <g id="patch_22">
     <path d="M 157.348245 484.777604 
L 217.235433 484.777604 
Q 220.735433 484.777604 220.735433 481.277604 
L 220.735433 468.138659 
Q 220.735433 464.638659 217.235433 464.638659 
L 157.348245 464.638659 
Q 153.848245 464.638659 153.848245 468.138659 
L 153.848245 481.277604 
Q 153.848245 484.777604 157.348245 484.777604 
z
" clip-path="url(#p37859f4cfc)" style="fill: #ffffff; opacity: 0.9"/>
    </g>
    <g clip-path="url(#p37859f4cfc)">
     <text style="font-weight: 700; font-size: 14px; font-family: 'Arial'; text-anchor: middle" x="187.291839" y="478.331041" transform="rotate(-0 187.291839 478.331041)">Humidity</text>
    </g>
   </g>
   <g id="text_10">
    <g id="patch_23">
     <path d="M 641.935708 643.68655 
L 711.955395 643.68655 
Q 715.455395 643.68655 715.455395 640.18655 
L 715.455395 627.047878 
Q 715.455395 623.547878 711.955395 623.547878 
L 641.935708 623.547878 
Q 638.435708 623.547878 638.435708 627.047878 
L 638.435708 640.18655 
Q 638.435708 643.68655 641.935708 643.68655 
z
" clip-path="url(#p37859f4cfc)" style="fill: #ffffff; opacity: 0.9"/>
    </g>
    <g clip-path="url(#p37859f4cfc)">
     <text style="font-weight: 700; font-size: 14px; font-family: 'Arial'; text-anchor: middle" x="676.945551" y="637.240261" transform="rotate(-0 676.945551 637.240261)">DC_Power</text>
    </g>
   </g>
   <g id="text_11">
    <text style="font-weight: 700; font-size: 14px; font-family: 'Arial'; text-anchor: middle; fill: #262626" x="506.88" y="28.192383" transform="rotate(-0 506.88 28.192383)">Expert Graph: graph_1</text>
   </g>
  </g>
 </g>
 <defs>
  <clipPath id="p37859f4cfc">
   <rect x="18" y="44.192383" width="977.76" height="735.567617"/>
  </clipPath>
 </defs>
</svg>
